<svg width="134" height="133" viewBox="0 0 134 133" fill="none" xmlns="http://www.w3.org/2000/svg">
<circle cx="67" cy="66.5" r="66.5" fill="#FFCE3A" fill-opacity="0.24"/>
<circle cx="67" cy="66.5" r="65.7629" stroke="white" stroke-opacity="0.25" stroke-width="1.47422"/>
<circle cx="67" cy="66.4998" r="51.2771" fill="#FFCE3A" fill-opacity="0.35"/>
<circle cx="67" cy="66.4998" r="50.54" stroke="white" stroke-opacity="0.25" stroke-width="1.47422"/>
<circle cx="67" cy="66.5" r="36.8554" fill="#FFCE3A"/>
<circle cx="67" cy="66.5" r="36.1183" stroke="white" stroke-opacity="0.25" stroke-width="1.47422"/>
<path d="M61.1371 78.2763L51.5444 68.6896C51.1804 68.325 50.9759 67.8308 50.9759 67.3155C50.9759 66.8002 51.1804 66.306 51.5444 65.9414L52.7099 64.7745C53.0745 64.4104 53.5687 64.2059 54.084 64.2059C54.5992 64.2059 55.0935 64.4104 55.4581 64.7745L62.4312 71.7431L78.8534 54.2916C79.2067 53.9167 79.6944 53.6973 80.2094 53.6816C80.7244 53.6659 81.2246 53.8551 81.6001 54.2078L82.797 55.3374C83.1724 55.6908 83.392 56.1788 83.4078 56.6941C83.4235 57.2095 83.2339 57.71 82.8807 58.0856L63.9318 78.2329C63.7533 78.4231 63.5385 78.5754 63.3 78.6809C63.0616 78.7863 62.8043 78.8428 62.5436 78.8468C62.2829 78.8509 62.024 78.8024 61.7824 78.7044C61.5408 78.6064 61.3214 78.4608 61.1371 78.2763Z" fill="black"/>
</svg>
