<svg width="11" height="11" viewBox="0 0 11 11" fill="none" xmlns="http://www.w3.org/2000/svg">
<path d="M5.45102 0L5.50697 0.229938C5.86223 1.68989 6.03986 2.41986 6.41969 3.00913C6.75556 3.5302 7.20362 3.96963 7.73113 4.29531C8.32767 4.6636 9.06096 4.827 10.5275 5.1538L10.902 5.23725L10.5275 5.3207C9.06096 5.6475 8.32767 5.8109 7.73113 6.17919C7.20362 6.50486 6.75556 6.9443 6.41969 7.46537C6.03986 8.05464 5.86223 8.78461 5.50697 10.2446L5.45102 10.4745L5.39506 10.2446C5.0398 8.78461 4.86217 8.05464 4.48234 7.46537C4.14647 6.9443 3.69841 6.50486 3.17091 6.17919C2.57436 5.8109 1.84107 5.6475 0.374485 5.3207L0 5.23725L0.374485 5.1538C1.84107 4.827 2.57436 4.6636 3.17091 4.29531C3.69841 3.96963 4.14647 3.5302 4.48234 3.00913C4.86217 2.41986 5.0398 1.68989 5.39506 0.229938L5.45102 0Z" fill="white"/>
</svg>
