<svg width="52" height="48" viewBox="0 0 52 48" fill="none" xmlns="http://www.w3.org/2000/svg">
<path d="M17.3537 0L18.6408 5.23029C19.3694 8.19072 19.7337 9.67093 20.5074 10.8647C21.1916 11.9202 22.103 12.8096 23.175 13.4678C24.3873 14.2122 25.8759 14.5402 28.8533 15.1962L34.7073 16.486L28.8533 17.7758C25.8759 18.4318 24.3873 18.7598 23.175 19.5041C22.103 20.1623 21.1916 21.0517 20.5074 22.1073C19.7337 23.301 19.3694 24.7812 18.6408 27.7416L17.3537 32.9719L16.0665 27.7416C15.3379 24.7812 14.9736 23.301 14.1999 22.1073C13.5157 21.0517 12.6043 20.1623 11.5323 19.5041C10.32 18.7598 8.83137 18.4318 5.85403 17.7758L0 16.486L5.85403 15.1962C8.83137 14.5402 10.32 14.2122 11.5323 13.4678C12.6043 12.8096 13.5157 11.9202 14.1999 10.8647C14.9736 9.67093 15.3379 8.19072 16.0665 5.2303L17.3537 0Z" fill="white"/>
<path d="M40.0838 26.0308L40.1974 26.4974C40.9184 29.4604 41.2789 30.9419 42.0498 32.1379C42.7314 33.1954 43.6408 34.0872 44.7114 34.7482C45.9221 35.4956 47.4103 35.8273 50.3868 36.4905L51.1468 36.6599L50.3868 36.8292C47.4103 37.4925 45.9221 37.8241 44.7114 38.5716C43.6408 39.2325 42.7314 40.1244 42.0498 41.1819C41.2789 42.3778 40.9184 43.8593 40.1974 46.8223L40.0838 47.289L39.9703 46.8223C39.2493 43.8593 38.8888 42.3778 38.1179 41.1819C37.4362 40.1244 36.5269 39.2325 35.4563 38.5716C34.2456 37.8241 32.7574 37.4925 29.7809 36.8292L29.0209 36.6599L29.7809 36.4905C32.7574 35.8273 34.2456 35.4956 35.4563 34.7482C36.5269 34.0872 37.4362 33.1954 38.1179 32.1379C38.8888 30.9419 39.2493 29.4604 39.9703 26.4974L40.0838 26.0308Z" fill="white"/>
</svg>
