<svg width="581" height="499" viewBox="0 0 581 499" fill="none" xmlns="http://www.w3.org/2000/svg">
<path d="M290.1 498.688C450.317 498.688 580.199 491.105 580.199 481.751C580.199 472.397 450.317 464.814 290.1 464.814C129.882 464.814 -0.00012207 472.397 -0.00012207 481.751C-0.00012207 491.105 129.882 498.688 290.1 498.688Z" fill="#FFF4D1"/>
<path d="M362.065 212.208C362.065 212.208 354.435 249.044 349.273 258.455C344.111 267.866 314.516 267.433 314.516 267.433L280.253 265.727C280.253 265.727 273.729 244.376 301.663 255.448C301.663 255.448 325.229 250.959 334.221 243.478L343.647 204.831L362.065 212.208Z" fill="#FF8B7B"/>
<path d="M464.033 486.821H454.891L430.084 351.878L429.231 347.225L438.058 345.594L439.21 351.878L464.033 486.821Z" fill="#FFCE3A"/>
<path opacity="0.5" d="M464.033 486.821H454.891L430.084 351.878L429.231 347.225L438.058 345.594L439.21 351.878L464.033 486.821Z" fill="white"/>
<path d="M424.607 486.821H415.585L403.196 351.878L401.88 337.514L401.581 334.327L410.513 333.505L410.887 337.514L412.204 351.878L424.607 486.821Z" fill="#FFCE3A"/>
<path opacity="0.5" d="M424.607 486.821H415.585L403.196 351.878L401.88 337.514L401.581 334.327L410.513 333.505L410.887 337.514L412.204 351.878L424.607 486.821Z" fill="white"/>
<path d="M332.353 339.22L331.395 351.878L321.131 486.821H312.124L322.373 351.878L323.39 338.547L332.353 339.22Z" fill="#FFCE3A"/>
<path opacity="0.5" d="M332.353 339.22L331.395 351.878L321.131 486.821H312.124L322.373 351.878L323.39 338.547L332.353 339.22Z" fill="white"/>
<path d="M306.331 339.624L304.311 351.878L282.063 486.821H272.966L295.229 351.878L297.489 338.158L306.331 339.624Z" fill="#FFCE3A"/>
<path opacity="0.5" d="M306.331 339.624L304.311 351.878L282.063 486.821H272.966L295.229 351.878L297.489 338.158L306.331 339.624Z" fill="white"/>
<path d="M453.066 335.406L452.243 337.516L448.308 347.466C447.802 348.771 446.912 349.892 445.755 350.68C444.599 351.468 443.23 351.886 441.83 351.879H293.616C292.177 351.882 290.773 351.441 289.595 350.616C288.417 349.792 287.522 348.623 287.032 347.271L283.546 337.516L282.723 335.197C282.346 334.145 282.227 333.018 282.378 331.911C282.528 330.803 282.943 329.749 283.588 328.836C284.232 327.923 285.087 327.179 286.08 326.666C287.072 326.153 288.174 325.887 289.291 325.89H446.588C447.723 325.889 448.842 326.165 449.846 326.696C450.85 327.226 451.709 327.994 452.348 328.932C452.987 329.871 453.386 330.951 453.511 332.08C453.637 333.208 453.484 334.35 453.066 335.406Z" fill="#FFCE3A"/>
<path opacity="0.3" d="M452.242 337.515L448.307 347.464C447.801 348.77 446.911 349.89 445.754 350.679C444.598 351.467 443.229 351.885 441.829 351.878H293.615C292.176 351.881 290.772 351.44 289.594 350.615C288.416 349.79 287.521 348.622 287.031 347.27L283.545 337.515H452.242Z" fill="black"/>
<path d="M302.143 423.546L309.146 407.641C309.552 406.714 310.281 405.967 311.198 405.537C312.115 405.108 313.156 405.026 314.128 405.307L325.2 408.449C325.779 408.615 326.316 408.904 326.774 409.295C327.231 409.687 327.6 410.172 327.854 410.718C328.108 411.264 328.241 411.859 328.246 412.461C328.25 413.064 328.125 413.66 327.878 414.21C324.886 420.972 319.2 433.57 317.405 438.074C314.966 444.343 312.916 451.899 309.654 454.009C309.455 454.14 309.245 454.256 309.026 454.353C308.339 454.635 307.589 454.728 306.854 454.621C306.118 454.514 305.426 454.212 304.848 453.745C304.269 453.279 303.827 452.665 303.567 451.969C303.308 451.273 303.239 450.521 303.37 449.789C304.238 444.523 305.181 434.678 302.009 426.733C301.816 426.22 301.728 425.673 301.751 425.126C301.774 424.578 301.908 424.041 302.143 423.546Z" fill="#263238"/>
<path d="M362.605 272.37C362.605 272.37 286.972 262.047 264.125 283.532C264.125 283.532 249.971 302.848 256.779 340.657C261.231 363.992 270.903 386.017 285.072 405.084L304.927 388.207C304.927 388.207 287.256 344.682 293.241 317.75L320.712 316.12L360.107 289.188L364.236 278.026L362.605 272.37Z" fill="#383126"/>
<path d="M286.896 412.685L279.49 403.693L306.631 381.369L311.763 386.711L286.896 412.685Z" fill="#FFCE3A"/>
<path d="M436.952 271.547C436.952 271.547 439.046 293.092 432.209 308.862C425.371 324.632 401.207 330.408 384.914 329.36C368.62 328.313 347.598 326.966 338.666 329.48C338.666 329.48 327.1 395.059 307.126 442.878L282.947 440.783C282.947 440.783 296.084 348.228 298.194 326.727C300.303 305.227 299.241 302.025 312.378 291.521C325.514 281.018 392.799 266.819 436.952 271.547Z" fill="#383126"/>
<path d="M300.975 451.541L298.686 461.551L279.49 468.269L285.071 446.948L300.975 451.541Z" fill="#FF8B7B"/>
<path d="M279.236 467.641L295.544 461.582C296.494 461.231 297.539 461.237 298.485 461.597C299.431 461.957 300.215 462.648 300.691 463.542L306.138 473.671C306.433 474.204 306.609 474.795 306.653 475.403C306.697 476.011 306.607 476.622 306.39 477.192C306.174 477.762 305.836 478.277 305.399 478.703C304.963 479.129 304.439 479.454 303.863 479.656C296.906 482.184 283.934 486.913 279.49 488.798C273.296 491.431 266.443 495.216 262.658 494.334C262.424 494.285 262.194 494.22 261.97 494.139C261.288 493.84 260.699 493.364 260.264 492.76C259.829 492.156 259.564 491.447 259.497 490.705C259.43 489.964 259.562 489.218 259.882 488.546C260.201 487.874 260.694 487.299 261.311 486.883C265.695 483.89 273.416 477.666 276.902 469.856C277.121 469.348 277.44 468.89 277.842 468.509C278.243 468.128 278.717 467.833 279.236 467.641Z" fill="#263238"/>
<path d="M362.066 277.322C362.066 277.322 352.221 212.207 350.097 196.362C347.972 180.518 350.097 172.423 356.082 167.231C362.066 162.039 389.507 150.953 407.925 153.945C426.343 156.937 435.336 172.363 437.849 189.854L433.57 191.993C433.57 191.993 439.046 252.68 437.056 273.671L362.066 277.322Z" fill="#FFCE3A"/>
<path d="M356.067 167.186C356.067 167.186 341.509 180.039 341.509 204.876L364.206 213.569L356.067 167.186Z" fill="#FFCE3A"/>
<path d="M433.914 191.755C433.914 191.755 442.158 220.901 439.898 232.945C437.639 244.99 417.126 261.149 388.608 266.535C388.608 266.535 375.936 268.749 368.634 262.735L357.547 259.563L360.719 249.733C369.169 249.882 377.489 251.836 385.122 255.463C385.122 255.463 412.368 243.104 420.926 233.604C420.926 233.604 419.969 214.273 415.226 200.687L433.914 191.755Z" fill="#FF8B7B"/>
<path d="M310.492 442.878L278.668 438.09L277.516 448.1L306.393 453.995L310.492 442.878Z" fill="#FFCE3A"/>
<path d="M340.116 127.058C338.145 132.81 338.391 139.089 340.804 144.669C339.683 140.218 339.891 135.537 341.403 131.203C342.899 127.103 345.368 123.498 347.283 119.607C349.198 115.717 350.5 111.184 349.228 107.039C348.959 106.216 348.36 105.259 347.507 105.393C346.655 105.528 346.475 106.246 346.236 106.89C345.41 108.594 344.778 110.386 344.35 112.231C344.141 113.652 344.35 115.059 344.141 116.51C343.438 120.161 341.358 123.483 340.116 127.058Z" fill="#263238"/>
<path d="M348.929 114.445C347.78 114.878 346.775 115.626 346.03 116.602C345.284 117.578 344.827 118.743 344.71 119.966C342.479 118.529 340.821 116.358 340.02 113.829C339.22 111.299 339.328 108.569 340.326 106.111C343.782 97.1337 348.465 84.4009 362.41 86.2562C376.355 88.1115 405.591 92.2411 395.117 123.392C384.644 154.543 374.26 116.495 374.26 116.495L348.929 114.445Z" fill="#263238"/>
<path d="M379.438 172.664C366.735 171.871 372.121 160.918 372.705 156.864C372.859 155.095 372.473 153.321 371.598 151.777C371.006 150.629 370.283 149.555 369.443 148.575C363.877 148.575 357.713 147.827 353.299 144.086C348.362 139.971 346.402 132.296 345.594 126.206C344.96 120.573 344.85 114.893 345.264 109.239C345.264 108.401 345.384 107.579 345.414 106.756C345.609 103.509 345.818 100.277 345.938 97.1051C345.938 97.1051 358.252 94.397 369.249 96.9106C377.388 98.7659 383.104 105.529 385.572 116.167C386.481 120.218 386.938 124.358 386.934 128.51C387.158 146.196 394.086 149.293 396.794 154.485C399.502 159.676 392.171 173.412 379.438 172.664Z" fill="#FF8B7B"/>
<path d="M356.741 130.036L353.749 118.65L351.699 130.62C351.699 130.62 353.36 131.981 356.741 130.036Z" fill="#FF5652"/>
<path d="M365.537 131.98C365.537 131.98 363.667 135.99 357.712 136.693" stroke="#1E1C00" stroke-width="2.07606" stroke-linecap="round" stroke-linejoin="round"/>
<path d="M364.909 112.694C364.097 111.801 363.03 111.178 361.853 110.911C360.675 110.643 359.444 110.743 358.326 111.198" stroke="#1E1C00" stroke-width="3.1141" stroke-linecap="round" stroke-linejoin="round"/>
<path d="M360.182 118.276C360.286 119.428 360.96 120.311 361.678 120.251C362.396 120.191 362.905 119.204 362.815 118.051C362.725 116.899 362.037 116.017 361.319 116.076C360.601 116.136 360.092 117.124 360.182 118.276Z" fill="#263238"/>
<path d="M346.954 121.537C347.059 122.689 347.732 123.572 348.45 123.512C349.168 123.452 349.677 122.464 349.587 121.312C349.497 120.16 348.809 119.262 348.091 119.337C347.373 119.412 346.954 120.385 346.954 121.537Z" fill="#263238"/>
<path d="M345.039 106.935C349.837 105.838 354.343 103.72 358.25 100.725C362.649 115.268 381.381 115.792 386.065 115.792C383.611 105.154 377.716 97.7629 369.606 95.9076C358.624 93.3939 345.667 96.2966 345.667 96.2966C345.547 99.4835 345.218 103.703 345.039 106.935Z" fill="#263238"/>
<path d="M361.319 116.077L358.251 115.494C358.251 115.494 359.044 117.723 361.319 116.077Z" fill="#263238"/>
<path d="M348.706 119.397L345.639 118.829C345.639 118.829 346.432 121.043 348.706 119.397Z" fill="#263238"/>
<path d="M389.193 88.5811C390.719 82.2594 386.577 75.8364 379.942 74.2349C373.307 72.6334 366.692 76.4599 365.166 82.7815C363.64 89.1032 367.782 95.5262 374.417 97.1277C381.052 98.7292 387.667 94.9028 389.193 88.5811Z" fill="#263238"/>
<path d="M354.241 102.851L351.757 106.112C351.757 106.112 358.326 104.975 359.777 100.487C361.228 95.9981 355.752 99.5142 355.752 99.5142L354.241 102.851Z" fill="#263238"/>
<path opacity="0.1" d="M377.836 145.013C376.228 147.66 374.107 149.959 371.597 151.775C371.005 150.628 370.282 149.554 369.443 148.574C372.403 147.813 375.232 146.612 377.836 145.013Z" fill="black"/>
<path d="M344.142 116.421C344.484 115.356 345.191 114.447 346.138 113.853C347.085 113.259 348.212 113.018 349.319 113.174" stroke="#1E1C00" stroke-width="3.1141" stroke-linecap="round" stroke-linejoin="round"/>
<path d="M382.235 117.617C382.644 117.007 383.11 116.435 383.626 115.912C385.377 114.131 388.235 111.797 390.883 113.099C394.085 114.595 393.412 119.158 392.514 121.912C391.79 124.376 390.138 126.462 387.906 127.732C384.749 129.363 380.051 128.495 380.08 124.246C380.131 121.872 380.88 119.567 382.235 117.617Z" fill="#FF8B7B"/>
<path d="M385.572 112.726C385.572 112.726 380.335 121.554 382.475 129.364C384.614 137.174 383.432 140.855 381.951 144.999C381.951 144.999 382.534 133.134 380.081 128.855C376.34 122.317 381.577 112.696 381.577 112.696L385.572 112.726Z" fill="#263238"/>
<path d="M365.344 86.3922C365.344 86.3922 378.899 88.0081 387.053 93.574C387.053 93.4992 379.976 84.0881 365.344 86.3922Z" fill="#FFCE3A"/>
<path d="M197.993 262.227H283.277C284.143 262.228 284.998 262.031 285.776 261.652C286.555 261.272 287.237 260.721 287.771 260.039C288.304 259.356 288.676 258.562 288.856 257.715C289.037 256.867 289.022 255.99 288.813 255.15L273.641 194.688C273.334 193.453 272.622 192.356 271.618 191.572C270.615 190.788 269.378 190.363 268.105 190.364H182.821C181.955 190.363 181.1 190.56 180.322 190.939C179.543 191.319 178.861 191.87 178.327 192.552C177.793 193.235 177.422 194.029 177.242 194.876C177.061 195.724 177.076 196.601 177.285 197.441L192.367 257.903C192.678 259.153 193.403 260.262 194.425 261.047C195.447 261.832 196.704 262.248 197.993 262.227Z" fill="#263238"/>
<path d="M338.292 262.016H280.329V257.527H335.329C336.123 257.527 336.884 257.842 337.445 258.403C338.007 258.965 338.322 259.726 338.322 260.519V262.105L338.292 262.016Z" fill="#263238"/>
<path opacity="0.3" d="M197.993 262.227H283.277C284.143 262.228 284.998 262.031 285.776 261.652C286.555 261.272 287.237 260.721 287.771 260.039C288.304 259.356 288.676 258.562 288.856 257.715C289.037 256.867 289.022 255.99 288.813 255.15L273.641 194.688C273.334 193.453 272.622 192.356 271.618 191.572C270.615 190.788 269.378 190.363 268.105 190.364H182.821C181.955 190.363 181.1 190.56 180.322 190.939C179.543 191.319 178.861 191.87 178.327 192.552C177.793 193.235 177.422 194.029 177.242 194.876C177.061 195.724 177.076 196.601 177.285 197.441L192.367 257.903C192.678 259.153 193.403 260.262 194.425 261.047C195.447 261.832 196.704 262.248 197.993 262.227Z" fill="black"/>
<path d="M193.519 262.227H278.803C279.669 262.228 280.524 262.031 281.303 261.652C282.082 261.272 282.764 260.721 283.297 260.039C283.831 259.356 284.202 258.562 284.383 257.715C284.563 256.867 284.548 255.99 284.339 255.15L269.153 194.688C268.845 193.453 268.133 192.356 267.13 191.572C266.126 190.788 264.89 190.363 263.617 190.364H178.333C177.467 190.363 176.612 190.56 175.833 190.939C175.054 191.319 174.372 191.87 173.839 192.552C173.305 193.235 172.934 194.029 172.753 194.876C172.573 195.724 172.588 196.601 172.797 197.441L187.879 257.903C188.193 259.155 188.921 260.263 189.945 261.048C190.969 261.833 192.229 262.249 193.519 262.227Z" fill="#373826"/>
<path opacity="0.2" d="M193.519 262.227H278.803C279.669 262.228 280.524 262.031 281.303 261.652C282.082 261.272 282.764 260.721 283.297 260.039C283.831 259.356 284.202 258.562 284.383 257.715C284.563 256.867 284.548 255.99 284.339 255.15L269.153 194.688C268.845 193.453 268.133 192.356 267.13 191.572C266.126 190.788 264.89 190.363 263.617 190.364H178.333C177.467 190.363 176.612 190.56 175.833 190.939C175.054 191.319 174.372 191.87 173.839 192.552C173.305 193.235 172.934 194.029 172.753 194.876C172.573 195.724 172.588 196.601 172.797 197.441L187.879 257.903C188.193 259.155 188.921 260.263 189.945 261.048C190.969 261.833 192.229 262.249 193.519 262.227Z" fill="white"/>
<path opacity="0.3" d="M232.361 224.521C233.543 229.563 231.164 234.455 227.035 235.428C222.905 236.401 218.566 233.109 217.369 228.067C216.172 223.024 218.566 218.132 222.696 217.159C226.825 216.187 231.164 219.553 232.361 224.521Z" fill="black"/>
<path d="M172.826 267.478L141.361 462.614H134.389L166.034 266.371L172.826 267.478Z" fill="#FFCE3A"/>
<path opacity="0.5" d="M172.826 267.478L141.361 462.614H134.389L166.034 266.371L172.826 267.478Z" fill="white"/>
<path d="M219.119 462.612H212.132L181.729 267.461L188.537 266.399L219.119 462.612Z" fill="#FFCE3A"/>
<path opacity="0.5" d="M219.119 462.612H212.132L181.729 267.461L188.537 266.399L219.119 462.612Z" fill="white"/>
<path d="M291.714 267.478L260.249 462.614H253.262L284.907 266.371L291.714 267.478Z" fill="#FFCE3A"/>
<path opacity="0.5" d="M291.714 267.478L260.249 462.614H253.262L284.907 266.371L291.714 267.478Z" fill="white"/>
<path d="M396.734 462.612H389.762L359.344 267.461L366.151 266.399L396.734 462.612Z" fill="#FFCE3A"/>
<path opacity="0.5" d="M396.734 462.612H389.762L359.344 267.461L366.151 266.399L396.734 462.612Z" fill="white"/>
<path d="M405.307 260.82H116.165V269.902H405.307V260.82Z" fill="#FFCE3A"/>
<path opacity="0.3" d="M405.441 260.82H288.902V269.902H405.441V260.82Z" fill="black"/>
<path d="M394.939 260.82H347.18C347.18 260.113 347.46 259.436 347.96 258.936C348.459 258.437 349.137 258.156 349.843 258.156H392.261C392.968 258.156 393.647 258.437 394.149 258.936C394.651 259.435 394.935 260.112 394.939 260.82Z" fill="#263238"/>
<path d="M377.597 235.369L371.163 250.81C369.981 250.571 368.919 250.406 368.171 250.301L374.874 234.217C375.027 233.85 375.319 233.559 375.687 233.407C376.054 233.256 376.467 233.256 376.834 233.409C377.201 233.562 377.492 233.854 377.644 234.222C377.796 234.589 377.795 235.002 377.642 235.369H377.597Z" fill="#263238"/>
<path d="M382.146 223.281C390.409 223.281 397.108 215.524 397.108 205.955C397.108 196.386 390.409 188.629 382.146 188.629C373.882 188.629 367.184 196.386 367.184 205.955C367.184 215.524 373.882 223.281 382.146 223.281Z" fill="#263238"/>
<path d="M415.227 200.627L414.209 197.021L437.116 185.605L437.894 189.929L415.227 200.627Z" fill="#263238"/>
<path opacity="0.1" d="M414.21 197.022L407.268 186.623L418.295 212.388L414.21 197.022Z" fill="black"/>
<path d="M351.848 208.825L351.219 204.92L341.509 201.224V204.92L351.848 208.825Z" fill="#263238"/>
<path opacity="0.1" d="M351.847 208.826C351.653 208.078 349.274 191.755 349.274 191.755V207.854L351.847 208.826Z" fill="black"/>
<path d="M371.193 159.617C371.193 159.617 364.639 174.25 380.08 173.786C395.521 173.322 399.411 161.921 400.189 153.437L395.371 151.776C395.371 151.776 392.588 163.746 382.145 166.125C371.701 168.504 372.569 157.612 372.569 157.612L371.193 159.617Z" fill="#263238"/>
<path opacity="0.1" d="M283.456 453.098L299.75 456.928L300.677 452.844L284.399 449.507L283.456 453.098Z" fill="black"/>
</svg>
